<svg width="122" height="26" viewBox="0 0 122 26" fill="none" xmlns="http://www.w3.org/2000/svg">
<mask id="path-1-inside-1_4547_2" fill="white">
<path d="M35.558 12.892C36.118 12.892 36.594 12.9714 36.986 13.13C37.378 13.2887 37.7607 13.5127 38.134 13.802C38.2367 13.886 38.3254 13.928 38.4 13.928C38.5867 13.928 38.708 13.648 38.764 13.088H39.086C39.0487 13.7227 39.03 14.852 39.03 16.476H38.708C38.624 15.7854 38.512 15.258 38.372 14.894C38.232 14.53 37.994 14.2127 37.658 13.942C37.4247 13.718 37.154 13.55 36.846 13.438C36.538 13.3167 36.216 13.256 35.88 13.256C34.9374 13.256 34.2374 13.718 33.78 14.642C33.3227 15.5567 33.094 16.7 33.094 18.072C33.094 19.4347 33.332 20.5734 33.808 21.488C34.284 22.4027 34.9934 22.86 35.936 22.86C36.2534 22.86 36.566 22.804 36.874 22.692C37.1914 22.5707 37.4574 22.398 37.672 22.174C38.0174 21.9127 38.2554 21.586 38.386 21.194C38.526 20.802 38.6334 20.228 38.708 19.472H39.03C39.03 21.1614 39.0487 22.3374 39.086 23H38.764C38.736 22.7014 38.694 22.4914 38.638 22.37C38.5914 22.2394 38.5214 22.174 38.428 22.174C38.3534 22.174 38.2554 22.2114 38.134 22.286C37.714 22.5847 37.3127 22.8134 36.93 22.972C36.5474 23.1214 36.0854 23.196 35.544 23.196C34.5547 23.196 33.6867 22.9954 32.94 22.594C32.2027 22.1927 31.6287 21.614 31.218 20.858C30.8074 20.0927 30.602 19.1827 30.602 18.128C30.602 17.1014 30.812 16.1914 31.232 15.398C31.652 14.6047 32.2354 13.9887 32.982 13.55C33.738 13.1114 34.5967 12.892 35.558 12.892Z"/>
<path d="M47.3891 12.892C48.3785 12.892 49.2418 13.0927 49.9791 13.494C50.7258 13.8954 51.3045 14.4787 51.7151 15.244C52.1258 16 52.3311 16.9054 52.3311 17.96C52.3311 18.9867 52.1211 19.8967 51.7011 20.69C51.2811 21.4834 50.6931 22.0994 49.9371 22.538C49.1905 22.9767 48.3365 23.196 47.3751 23.196C46.3858 23.196 45.5178 22.9954 44.7711 22.594C44.0338 22.1927 43.4598 21.614 43.0491 20.858C42.6385 20.0927 42.4331 19.1827 42.4331 18.128C42.4331 17.1014 42.6431 16.1914 43.0631 15.398C43.4831 14.6047 44.0665 13.9887 44.8131 13.55C45.5691 13.1114 46.4278 12.892 47.3891 12.892ZM47.3331 13.144C46.8198 13.144 46.3671 13.354 45.9751 13.774C45.5831 14.1847 45.2798 14.7634 45.0651 15.51C44.8598 16.2567 44.7571 17.1107 44.7571 18.072C44.7571 19.0427 44.8738 19.8967 45.1071 20.634C45.3498 21.3714 45.6718 21.9407 46.0731 22.342C46.4838 22.7434 46.9365 22.944 47.4311 22.944C47.9445 22.944 48.3971 22.7387 48.7891 22.328C49.1811 21.908 49.4798 21.3247 49.6851 20.578C49.8998 19.8314 50.0071 18.9774 50.0071 18.016C50.0071 17.0454 49.8858 16.1914 49.6431 15.454C49.4098 14.7167 49.0878 14.1474 48.6771 13.746C48.2758 13.3447 47.8278 13.144 47.3331 13.144Z"/>
<path d="M64.4853 13.368C64.1773 13.4147 63.9487 13.494 63.7993 13.606C63.6593 13.718 63.5613 13.8954 63.5053 14.138C63.4587 14.3807 63.4353 14.74 63.4353 15.216V23.028L63.0993 23.014L62.7213 23.028L56.6453 15.328V20.704C56.6453 21.2547 56.6733 21.6607 56.7293 21.922C56.7853 22.174 56.9067 22.3607 57.0933 22.482C57.28 22.594 57.5833 22.6734 58.0033 22.72V23C57.6393 22.972 57.1353 22.958 56.4913 22.958C55.978 22.958 55.572 22.972 55.2733 23V22.72C55.5813 22.6734 55.8053 22.594 55.9453 22.482C56.0947 22.37 56.1927 22.1927 56.2393 21.95C56.2953 21.7074 56.3233 21.348 56.3233 20.872V14.572C56.3233 14.2174 56.2953 13.9607 56.2393 13.802C56.1927 13.6434 56.0947 13.536 55.9453 13.48C55.8053 13.424 55.5813 13.3867 55.2733 13.368V13.088C55.572 13.116 55.978 13.13 56.4913 13.13C56.958 13.13 57.3593 13.116 57.6953 13.088L63.1133 19.766V15.384C63.1133 14.8334 63.0853 14.432 63.0293 14.18C62.9733 13.9187 62.852 13.732 62.6653 13.62C62.4787 13.4987 62.1753 13.4147 61.7553 13.368V13.088C62.1193 13.116 62.6233 13.13 63.2673 13.13C63.79 13.13 64.196 13.116 64.4853 13.088V13.368Z"/>
<path d="M77.6991 22.902C77.5405 23.9567 77.2185 24.6847 76.7331 25.086C76.5278 25.254 76.2665 25.3847 75.9491 25.478C75.6411 25.5807 75.3005 25.632 74.9271 25.632C74.4231 25.632 73.9238 25.5527 73.4291 25.394C72.9438 25.2354 72.3418 24.9974 71.6231 24.68C71.4458 24.6054 71.2498 24.5214 71.0351 24.428C70.8298 24.344 70.5965 24.2507 70.3351 24.148L69.9991 24.05C69.8218 24.1434 69.6258 24.2134 69.4111 24.26C69.2058 24.316 69.0098 24.344 68.8231 24.344C68.6271 24.344 68.4685 24.3114 68.3471 24.246C68.2258 24.19 68.1651 24.1014 68.1651 23.98C68.1651 23.728 68.4218 23.602 68.9351 23.602C69.2805 23.602 69.6351 23.6674 69.9991 23.798C70.3165 23.7047 70.6525 23.5787 71.0071 23.42C71.0725 23.392 71.1705 23.35 71.3011 23.294C71.4318 23.2474 71.5485 23.2054 71.6511 23.168C70.7831 23.084 70.0225 22.832 69.3691 22.412C68.7251 21.9827 68.2258 21.404 67.8711 20.676C67.5258 19.948 67.3531 19.0987 67.3531 18.128C67.3531 17.1014 67.5631 16.1914 67.9831 15.398C68.4031 14.6047 68.9865 13.9887 69.7331 13.55C70.4891 13.1114 71.3478 12.892 72.3091 12.892C73.2985 12.892 74.1618 13.0927 74.8991 13.494C75.6458 13.8954 76.2245 14.4787 76.6351 15.244C77.0458 16 77.2511 16.9054 77.2511 17.96C77.2511 18.9494 77.0551 19.836 76.6631 20.62C76.2711 21.3947 75.7205 22.006 75.0111 22.454C74.3018 22.902 73.4945 23.1447 72.5891 23.182C72.3651 23.21 72.1645 23.252 71.9871 23.308C71.8098 23.364 71.5998 23.4434 71.3571 23.546C71.0585 23.6767 70.7691 23.784 70.4891 23.868L71.6231 23.966C72.8085 24.0687 73.6625 24.12 74.1851 24.12C74.5305 24.12 74.8805 24.0967 75.2351 24.05C75.8138 23.9847 76.2711 23.8587 76.6071 23.672C76.9431 23.4947 77.2231 23.2147 77.4471 22.832L77.6991 22.902ZM69.6771 18.072C69.6771 19.0427 69.7938 19.8967 70.0271 20.634C70.2698 21.3714 70.5918 21.9407 70.9931 22.342C71.4038 22.7434 71.8565 22.944 72.3511 22.944C72.8645 22.944 73.3171 22.7387 73.7091 22.328C74.1011 21.908 74.3998 21.3247 74.6051 20.578C74.8198 19.8314 74.9271 18.9774 74.9271 18.016C74.9271 17.0454 74.8058 16.1914 74.5631 15.454C74.3298 14.7167 74.0078 14.1474 73.5971 13.746C73.1958 13.3447 72.7478 13.144 72.2531 13.144C71.7398 13.144 71.2871 13.354 70.8951 13.774C70.5031 14.1847 70.1998 14.7634 69.9851 15.51C69.7798 16.2567 69.6771 17.1107 69.6771 18.072Z"/>
<path d="M89.1383 13.368C88.8303 13.4147 88.6017 13.494 88.4523 13.606C88.3123 13.718 88.2143 13.8954 88.1583 14.138C88.1117 14.3807 88.0883 14.74 88.0883 15.216V18.926C88.0883 20.2607 87.897 21.25 87.5143 21.894C87.2623 22.3047 86.8983 22.6267 86.4223 22.86C85.9463 23.084 85.363 23.196 84.6723 23.196C83.5897 23.196 82.7497 22.9627 82.1523 22.496C81.723 22.1507 81.4337 21.7167 81.2843 21.194C81.135 20.662 81.0603 19.92 81.0603 18.968V14.572C81.0603 14.2174 81.0323 13.9607 80.9763 13.802C80.9297 13.6434 80.8317 13.536 80.6823 13.48C80.5423 13.424 80.3183 13.3867 80.0103 13.368V13.088C80.4863 13.116 81.2143 13.13 82.1943 13.13C83.165 13.13 83.907 13.116 84.4203 13.088V13.368C84.0843 13.3867 83.837 13.424 83.6783 13.48C83.529 13.536 83.4263 13.6434 83.3703 13.802C83.3143 13.9607 83.2863 14.2174 83.2863 14.572V19.85C83.2863 20.83 83.4263 21.5534 83.7063 22.02C83.9957 22.4774 84.4997 22.706 85.2183 22.706C86.1517 22.706 86.8097 22.3934 87.1923 21.768C87.575 21.1334 87.7663 20.2374 87.7663 19.08V15.384C87.7663 14.8427 87.7337 14.4414 87.6683 14.18C87.603 13.9187 87.477 13.732 87.2903 13.62C87.1037 13.4987 86.8097 13.4147 86.4083 13.368V13.088C86.763 13.116 87.267 13.13 87.9203 13.13C88.443 13.13 88.849 13.116 89.1383 13.088V13.368Z"/>
<path d="M99.5047 20.872C99.5047 21.7307 99.5374 22.44 99.6027 23C98.968 22.972 97.8994 22.958 96.3967 22.958C94.362 22.958 92.8407 22.972 91.8327 23V22.72C92.1407 22.7014 92.3647 22.664 92.5047 22.608C92.654 22.552 92.752 22.4447 92.7987 22.286C92.8547 22.1274 92.8827 21.8707 92.8827 21.516V14.572C92.8827 14.2174 92.8547 13.9607 92.7987 13.802C92.752 13.6434 92.654 13.536 92.5047 13.48C92.3647 13.424 92.1407 13.3867 91.8327 13.368V13.088C92.8407 13.116 94.362 13.13 96.3967 13.13C97.7687 13.13 98.744 13.116 99.3227 13.088C99.2574 13.8627 99.2247 14.5534 99.2247 15.16C99.2247 15.5707 99.2387 15.888 99.2667 16.112H98.9447C98.8047 15.1134 98.5527 14.4134 98.1887 14.012C97.8247 13.6107 97.3114 13.41 96.6487 13.41H96.0747C95.7854 13.41 95.5754 13.4334 95.4447 13.48C95.314 13.5267 95.2254 13.62 95.1787 13.76C95.132 13.8907 95.1087 14.1054 95.1087 14.404V17.876H95.5567C96.0514 17.876 96.4247 17.694 96.6767 17.33C96.938 16.966 97.12 16.532 97.2227 16.028H97.5447C97.5167 16.42 97.5027 16.8587 97.5027 17.344V18.016C97.5027 18.492 97.5307 19.1547 97.5867 20.004H97.2647C97.0687 18.772 96.4994 18.156 95.5567 18.156H95.1087V21.684C95.1087 21.9827 95.132 22.202 95.1787 22.342C95.2254 22.4727 95.314 22.5614 95.4447 22.608C95.5754 22.6547 95.7854 22.678 96.0747 22.678H96.7607C97.4234 22.678 97.9554 22.454 98.3567 22.006C98.7674 21.5487 99.0567 20.7787 99.2247 19.696H99.5467C99.5187 20.004 99.5047 20.396 99.5047 20.872Z"/>
<path d="M106.166 12.906C106.651 12.906 107.038 12.9527 107.328 13.046C107.617 13.1394 107.911 13.2747 108.21 13.452C108.312 13.508 108.401 13.5547 108.476 13.592C108.56 13.6294 108.63 13.648 108.686 13.648C108.77 13.648 108.835 13.6014 108.882 13.508C108.928 13.4054 108.966 13.2467 108.994 13.032H109.316C109.269 13.6574 109.246 14.7214 109.246 16.224H108.924C108.886 15.72 108.77 15.2394 108.574 14.782C108.387 14.3247 108.116 13.956 107.762 13.676C107.416 13.3867 107.01 13.242 106.544 13.242C106.086 13.242 105.713 13.3727 105.424 13.634C105.144 13.886 105.004 14.2314 105.004 14.67C105.004 14.9967 105.074 15.2814 105.214 15.524C105.354 15.7667 105.55 15.9907 105.802 16.196C106.054 16.392 106.441 16.6627 106.964 17.008L107.412 17.316C107.962 17.68 108.396 17.9974 108.714 18.268C109.031 18.5387 109.288 18.856 109.484 19.22C109.689 19.5747 109.792 19.99 109.792 20.466C109.792 21.0634 109.638 21.5674 109.33 21.978C109.022 22.3794 108.602 22.6827 108.07 22.888C107.547 23.0934 106.964 23.196 106.32 23.196C105.797 23.196 105.363 23.1494 105.018 23.056C104.672 22.9627 104.355 22.8367 104.066 22.678C103.86 22.5474 103.702 22.482 103.59 22.482C103.506 22.482 103.44 22.5334 103.394 22.636C103.347 22.7294 103.31 22.8834 103.282 23.098H102.96C102.997 22.51 103.016 21.25 103.016 19.318H103.338C103.403 20.3634 103.636 21.2127 104.038 21.866C104.439 22.51 105.055 22.832 105.886 22.832C106.39 22.832 106.805 22.6967 107.132 22.426C107.458 22.1554 107.622 21.768 107.622 21.264C107.622 20.7414 107.454 20.2934 107.118 19.92C106.782 19.5467 106.25 19.1267 105.522 18.66C104.962 18.296 104.514 17.9787 104.178 17.708C103.842 17.4374 103.566 17.12 103.352 16.756C103.137 16.3827 103.03 15.9534 103.03 15.468C103.03 14.908 103.17 14.4367 103.45 14.054C103.739 13.662 104.122 13.3727 104.598 13.186C105.074 12.9994 105.596 12.906 106.166 12.906Z"/>
<path d="M121.314 13.088C121.248 13.9747 121.216 14.768 121.216 15.468C121.216 15.9067 121.23 16.2614 121.258 16.532H120.936C120.712 15.384 120.404 14.5767 120.012 14.11C119.629 13.6434 119.102 13.41 118.43 13.41H118.108V21.404C118.108 21.796 118.145 22.0807 118.22 22.258C118.304 22.4354 118.444 22.5567 118.64 22.622C118.845 22.678 119.167 22.7107 119.606 22.72V23C118.43 22.972 117.543 22.958 116.946 22.958C116.358 22.958 115.504 22.972 114.384 23V22.72C114.822 22.7107 115.14 22.678 115.336 22.622C115.541 22.5567 115.681 22.4354 115.756 22.258C115.84 22.0807 115.882 21.796 115.882 21.404V13.41H115.574C115.126 13.41 114.743 13.508 114.426 13.704C114.118 13.9 113.852 14.2267 113.628 14.684C113.404 15.132 113.212 15.748 113.054 16.532H112.732C112.76 16.2614 112.774 15.9067 112.774 15.468C112.774 14.768 112.741 13.9747 112.676 13.088C113.525 13.116 114.967 13.13 117.002 13.13C119.036 13.13 120.474 13.116 121.314 13.088Z"/>
<path d="M24.0649 7.06571C25.1835 9.15186 25.6525 11.4127 25.542 13.6163C25.3288 17.8681 22.958 21.9065 18.9327 24.0649C16.5817 25.3255 14.0087 25.7612 11.546 25.472C7.60697 25.0096 3.94988 22.6931 1.93356 18.9327C-1.34343 12.8213 0.954315 5.21054 7.06571 1.93356C8.51995 1.15378 10.0591 0.689663 11.6045 0.51747C13.8686 0.265209 16.1461 0.639478 18.1902 1.56567C20.6144 2.66415 22.71 4.53899 24.0649 7.06571Z"/>
</mask>
<path d="M35.558 12.892C36.118 12.892 36.594 12.9714 36.986 13.13C37.378 13.2887 37.7607 13.5127 38.134 13.802C38.2367 13.886 38.3254 13.928 38.4 13.928C38.5867 13.928 38.708 13.648 38.764 13.088H39.086C39.0487 13.7227 39.03 14.852 39.03 16.476H38.708C38.624 15.7854 38.512 15.258 38.372 14.894C38.232 14.53 37.994 14.2127 37.658 13.942C37.4247 13.718 37.154 13.55 36.846 13.438C36.538 13.3167 36.216 13.256 35.88 13.256C34.9374 13.256 34.2374 13.718 33.78 14.642C33.3227 15.5567 33.094 16.7 33.094 18.072C33.094 19.4347 33.332 20.5734 33.808 21.488C34.284 22.4027 34.9934 22.86 35.936 22.86C36.2534 22.86 36.566 22.804 36.874 22.692C37.1914 22.5707 37.4574 22.398 37.672 22.174C38.0174 21.9127 38.2554 21.586 38.386 21.194C38.526 20.802 38.6334 20.228 38.708 19.472H39.03C39.03 21.1614 39.0487 22.3374 39.086 23H38.764C38.736 22.7014 38.694 22.4914 38.638 22.37C38.5914 22.2394 38.5214 22.174 38.428 22.174C38.3534 22.174 38.2554 22.2114 38.134 22.286C37.714 22.5847 37.3127 22.8134 36.93 22.972C36.5474 23.1214 36.0854 23.196 35.544 23.196C34.5547 23.196 33.6867 22.9954 32.94 22.594C32.2027 22.1927 31.6287 21.614 31.218 20.858C30.8074 20.0927 30.602 19.1827 30.602 18.128C30.602 17.1014 30.812 16.1914 31.232 15.398C31.652 14.6047 32.2354 13.9887 32.982 13.55C33.738 13.1114 34.5967 12.892 35.558 12.892Z" fill="white"/>
<path d="M47.3891 12.892C48.3785 12.892 49.2418 13.0927 49.9791 13.494C50.7258 13.8954 51.3045 14.4787 51.7151 15.244C52.1258 16 52.3311 16.9054 52.3311 17.96C52.3311 18.9867 52.1211 19.8967 51.7011 20.69C51.2811 21.4834 50.6931 22.0994 49.9371 22.538C49.1905 22.9767 48.3365 23.196 47.3751 23.196C46.3858 23.196 45.5178 22.9954 44.7711 22.594C44.0338 22.1927 43.4598 21.614 43.0491 20.858C42.6385 20.0927 42.4331 19.1827 42.4331 18.128C42.4331 17.1014 42.6431 16.1914 43.0631 15.398C43.4831 14.6047 44.0665 13.9887 44.8131 13.55C45.5691 13.1114 46.4278 12.892 47.3891 12.892ZM47.3331 13.144C46.8198 13.144 46.3671 13.354 45.9751 13.774C45.5831 14.1847 45.2798 14.7634 45.0651 15.51C44.8598 16.2567 44.7571 17.1107 44.7571 18.072C44.7571 19.0427 44.8738 19.8967 45.1071 20.634C45.3498 21.3714 45.6718 21.9407 46.0731 22.342C46.4838 22.7434 46.9365 22.944 47.4311 22.944C47.9445 22.944 48.3971 22.7387 48.7891 22.328C49.1811 21.908 49.4798 21.3247 49.6851 20.578C49.8998 19.8314 50.0071 18.9774 50.0071 18.016C50.0071 17.0454 49.8858 16.1914 49.6431 15.454C49.4098 14.7167 49.0878 14.1474 48.6771 13.746C48.2758 13.3447 47.8278 13.144 47.3331 13.144Z" fill="white"/>
<path d="M64.4853 13.368C64.1773 13.4147 63.9487 13.494 63.7993 13.606C63.6593 13.718 63.5613 13.8954 63.5053 14.138C63.4587 14.3807 63.4353 14.74 63.4353 15.216V23.028L63.0993 23.014L62.7213 23.028L56.6453 15.328V20.704C56.6453 21.2547 56.6733 21.6607 56.7293 21.922C56.7853 22.174 56.9067 22.3607 57.0933 22.482C57.28 22.594 57.5833 22.6734 58.0033 22.72V23C57.6393 22.972 57.1353 22.958 56.4913 22.958C55.978 22.958 55.572 22.972 55.2733 23V22.72C55.5813 22.6734 55.8053 22.594 55.9453 22.482C56.0947 22.37 56.1927 22.1927 56.2393 21.95C56.2953 21.7074 56.3233 21.348 56.3233 20.872V14.572C56.3233 14.2174 56.2953 13.9607 56.2393 13.802C56.1927 13.6434 56.0947 13.536 55.9453 13.48C55.8053 13.424 55.5813 13.3867 55.2733 13.368V13.088C55.572 13.116 55.978 13.13 56.4913 13.13C56.958 13.13 57.3593 13.116 57.6953 13.088L63.1133 19.766V15.384C63.1133 14.8334 63.0853 14.432 63.0293 14.18C62.9733 13.9187 62.852 13.732 62.6653 13.62C62.4787 13.4987 62.1753 13.4147 61.7553 13.368V13.088C62.1193 13.116 62.6233 13.13 63.2673 13.13C63.79 13.13 64.196 13.116 64.4853 13.088V13.368Z" fill="white"/>
<path d="M77.6991 22.902C77.5405 23.9567 77.2185 24.6847 76.7331 25.086C76.5278 25.254 76.2665 25.3847 75.9491 25.478C75.6411 25.5807 75.3005 25.632 74.9271 25.632C74.4231 25.632 73.9238 25.5527 73.4291 25.394C72.9438 25.2354 72.3418 24.9974 71.6231 24.68C71.4458 24.6054 71.2498 24.5214 71.0351 24.428C70.8298 24.344 70.5965 24.2507 70.3351 24.148L69.9991 24.05C69.8218 24.1434 69.6258 24.2134 69.4111 24.26C69.2058 24.316 69.0098 24.344 68.8231 24.344C68.6271 24.344 68.4685 24.3114 68.3471 24.246C68.2258 24.19 68.1651 24.1014 68.1651 23.98C68.1651 23.728 68.4218 23.602 68.9351 23.602C69.2805 23.602 69.6351 23.6674 69.9991 23.798C70.3165 23.7047 70.6525 23.5787 71.0071 23.42C71.0725 23.392 71.1705 23.35 71.3011 23.294C71.4318 23.2474 71.5485 23.2054 71.6511 23.168C70.7831 23.084 70.0225 22.832 69.3691 22.412C68.7251 21.9827 68.2258 21.404 67.8711 20.676C67.5258 19.948 67.3531 19.0987 67.3531 18.128C67.3531 17.1014 67.5631 16.1914 67.9831 15.398C68.4031 14.6047 68.9865 13.9887 69.7331 13.55C70.4891 13.1114 71.3478 12.892 72.3091 12.892C73.2985 12.892 74.1618 13.0927 74.8991 13.494C75.6458 13.8954 76.2245 14.4787 76.6351 15.244C77.0458 16 77.2511 16.9054 77.2511 17.96C77.2511 18.9494 77.0551 19.836 76.6631 20.62C76.2711 21.3947 75.7205 22.006 75.0111 22.454C74.3018 22.902 73.4945 23.1447 72.5891 23.182C72.3651 23.21 72.1645 23.252 71.9871 23.308C71.8098 23.364 71.5998 23.4434 71.3571 23.546C71.0585 23.6767 70.7691 23.784 70.4891 23.868L71.6231 23.966C72.8085 24.0687 73.6625 24.12 74.1851 24.12C74.5305 24.12 74.8805 24.0967 75.2351 24.05C75.8138 23.9847 76.2711 23.8587 76.6071 23.672C76.9431 23.4947 77.2231 23.2147 77.4471 22.832L77.6991 22.902ZM69.6771 18.072C69.6771 19.0427 69.7938 19.8967 70.0271 20.634C70.2698 21.3714 70.5918 21.9407 70.9931 22.342C71.4038 22.7434 71.8565 22.944 72.3511 22.944C72.8645 22.944 73.3171 22.7387 73.7091 22.328C74.1011 21.908 74.3998 21.3247 74.6051 20.578C74.8198 19.8314 74.9271 18.9774 74.9271 18.016C74.9271 17.0454 74.8058 16.1914 74.5631 15.454C74.3298 14.7167 74.0078 14.1474 73.5971 13.746C73.1958 13.3447 72.7478 13.144 72.2531 13.144C71.7398 13.144 71.2871 13.354 70.8951 13.774C70.5031 14.1847 70.1998 14.7634 69.9851 15.51C69.7798 16.2567 69.6771 17.1107 69.6771 18.072Z" fill="white"/>
<path d="M89.1383 13.368C88.8303 13.4147 88.6017 13.494 88.4523 13.606C88.3123 13.718 88.2143 13.8954 88.1583 14.138C88.1117 14.3807 88.0883 14.74 88.0883 15.216V18.926C88.0883 20.2607 87.897 21.25 87.5143 21.894C87.2623 22.3047 86.8983 22.6267 86.4223 22.86C85.9463 23.084 85.363 23.196 84.6723 23.196C83.5897 23.196 82.7497 22.9627 82.1523 22.496C81.723 22.1507 81.4337 21.7167 81.2843 21.194C81.135 20.662 81.0603 19.92 81.0603 18.968V14.572C81.0603 14.2174 81.0323 13.9607 80.9763 13.802C80.9297 13.6434 80.8317 13.536 80.6823 13.48C80.5423 13.424 80.3183 13.3867 80.0103 13.368V13.088C80.4863 13.116 81.2143 13.13 82.1943 13.13C83.165 13.13 83.907 13.116 84.4203 13.088V13.368C84.0843 13.3867 83.837 13.424 83.6783 13.48C83.529 13.536 83.4263 13.6434 83.3703 13.802C83.3143 13.9607 83.2863 14.2174 83.2863 14.572V19.85C83.2863 20.83 83.4263 21.5534 83.7063 22.02C83.9957 22.4774 84.4997 22.706 85.2183 22.706C86.1517 22.706 86.8097 22.3934 87.1923 21.768C87.575 21.1334 87.7663 20.2374 87.7663 19.08V15.384C87.7663 14.8427 87.7337 14.4414 87.6683 14.18C87.603 13.9187 87.477 13.732 87.2903 13.62C87.1037 13.4987 86.8097 13.4147 86.4083 13.368V13.088C86.763 13.116 87.267 13.13 87.9203 13.13C88.443 13.13 88.849 13.116 89.1383 13.088V13.368Z" fill="white"/>
<path d="M99.5047 20.872C99.5047 21.7307 99.5374 22.44 99.6027 23C98.968 22.972 97.8994 22.958 96.3967 22.958C94.362 22.958 92.8407 22.972 91.8327 23V22.72C92.1407 22.7014 92.3647 22.664 92.5047 22.608C92.654 22.552 92.752 22.4447 92.7987 22.286C92.8547 22.1274 92.8827 21.8707 92.8827 21.516V14.572C92.8827 14.2174 92.8547 13.9607 92.7987 13.802C92.752 13.6434 92.654 13.536 92.5047 13.48C92.3647 13.424 92.1407 13.3867 91.8327 13.368V13.088C92.8407 13.116 94.362 13.13 96.3967 13.13C97.7687 13.13 98.744 13.116 99.3227 13.088C99.2574 13.8627 99.2247 14.5534 99.2247 15.16C99.2247 15.5707 99.2387 15.888 99.2667 16.112H98.9447C98.8047 15.1134 98.5527 14.4134 98.1887 14.012C97.8247 13.6107 97.3114 13.41 96.6487 13.41H96.0747C95.7854 13.41 95.5754 13.4334 95.4447 13.48C95.314 13.5267 95.2254 13.62 95.1787 13.76C95.132 13.8907 95.1087 14.1054 95.1087 14.404V17.876H95.5567C96.0514 17.876 96.4247 17.694 96.6767 17.33C96.938 16.966 97.12 16.532 97.2227 16.028H97.5447C97.5167 16.42 97.5027 16.8587 97.5027 17.344V18.016C97.5027 18.492 97.5307 19.1547 97.5867 20.004H97.2647C97.0687 18.772 96.4994 18.156 95.5567 18.156H95.1087V21.684C95.1087 21.9827 95.132 22.202 95.1787 22.342C95.2254 22.4727 95.314 22.5614 95.4447 22.608C95.5754 22.6547 95.7854 22.678 96.0747 22.678H96.7607C97.4234 22.678 97.9554 22.454 98.3567 22.006C98.7674 21.5487 99.0567 20.7787 99.2247 19.696H99.5467C99.5187 20.004 99.5047 20.396 99.5047 20.872Z" fill="white"/>
<path d="M106.166 12.906C106.651 12.906 107.038 12.9527 107.328 13.046C107.617 13.1394 107.911 13.2747 108.21 13.452C108.312 13.508 108.401 13.5547 108.476 13.592C108.56 13.6294 108.63 13.648 108.686 13.648C108.77 13.648 108.835 13.6014 108.882 13.508C108.928 13.4054 108.966 13.2467 108.994 13.032H109.316C109.269 13.6574 109.246 14.7214 109.246 16.224H108.924C108.886 15.72 108.77 15.2394 108.574 14.782C108.387 14.3247 108.116 13.956 107.762 13.676C107.416 13.3867 107.01 13.242 106.544 13.242C106.086 13.242 105.713 13.3727 105.424 13.634C105.144 13.886 105.004 14.2314 105.004 14.67C105.004 14.9967 105.074 15.2814 105.214 15.524C105.354 15.7667 105.55 15.9907 105.802 16.196C106.054 16.392 106.441 16.6627 106.964 17.008L107.412 17.316C107.962 17.68 108.396 17.9974 108.714 18.268C109.031 18.5387 109.288 18.856 109.484 19.22C109.689 19.5747 109.792 19.99 109.792 20.466C109.792 21.0634 109.638 21.5674 109.33 21.978C109.022 22.3794 108.602 22.6827 108.07 22.888C107.547 23.0934 106.964 23.196 106.32 23.196C105.797 23.196 105.363 23.1494 105.018 23.056C104.672 22.9627 104.355 22.8367 104.066 22.678C103.86 22.5474 103.702 22.482 103.59 22.482C103.506 22.482 103.44 22.5334 103.394 22.636C103.347 22.7294 103.31 22.8834 103.282 23.098H102.96C102.997 22.51 103.016 21.25 103.016 19.318H103.338C103.403 20.3634 103.636 21.2127 104.038 21.866C104.439 22.51 105.055 22.832 105.886 22.832C106.39 22.832 106.805 22.6967 107.132 22.426C107.458 22.1554 107.622 21.768 107.622 21.264C107.622 20.7414 107.454 20.2934 107.118 19.92C106.782 19.5467 106.25 19.1267 105.522 18.66C104.962 18.296 104.514 17.9787 104.178 17.708C103.842 17.4374 103.566 17.12 103.352 16.756C103.137 16.3827 103.03 15.9534 103.03 15.468C103.03 14.908 103.17 14.4367 103.45 14.054C103.739 13.662 104.122 13.3727 104.598 13.186C105.074 12.9994 105.596 12.906 106.166 12.906Z" fill="white"/>
<path d="M121.314 13.088C121.248 13.9747 121.216 14.768 121.216 15.468C121.216 15.9067 121.23 16.2614 121.258 16.532H120.936C120.712 15.384 120.404 14.5767 120.012 14.11C119.629 13.6434 119.102 13.41 118.43 13.41H118.108V21.404C118.108 21.796 118.145 22.0807 118.22 22.258C118.304 22.4354 118.444 22.5567 118.64 22.622C118.845 22.678 119.167 22.7107 119.606 22.72V23C118.43 22.972 117.543 22.958 116.946 22.958C116.358 22.958 115.504 22.972 114.384 23V22.72C114.822 22.7107 115.14 22.678 115.336 22.622C115.541 22.5567 115.681 22.4354 115.756 22.258C115.84 22.0807 115.882 21.796 115.882 21.404V13.41H115.574C115.126 13.41 114.743 13.508 114.426 13.704C114.118 13.9 113.852 14.2267 113.628 14.684C113.404 15.132 113.212 15.748 113.054 16.532H112.732C112.76 16.2614 112.774 15.9067 112.774 15.468C112.774 14.768 112.741 13.9747 112.676 13.088C113.525 13.116 114.967 13.13 117.002 13.13C119.036 13.13 120.474 13.116 121.314 13.088Z" fill="white"/>
<path d="M35.558 12.892C36.118 12.892 36.594 12.9714 36.986 13.13C37.378 13.2887 37.7607 13.5127 38.134 13.802C38.2367 13.886 38.3254 13.928 38.4 13.928C38.5867 13.928 38.708 13.648 38.764 13.088H39.086C39.0487 13.7227 39.03 14.852 39.03 16.476H38.708C38.624 15.7854 38.512 15.258 38.372 14.894C38.232 14.53 37.994 14.2127 37.658 13.942C37.4247 13.718 37.154 13.55 36.846 13.438C36.538 13.3167 36.216 13.256 35.88 13.256C34.9374 13.256 34.2374 13.718 33.78 14.642C33.3227 15.5567 33.094 16.7 33.094 18.072C33.094 19.4347 33.332 20.5734 33.808 21.488C34.284 22.4027 34.9934 22.86 35.936 22.86C36.2534 22.86 36.566 22.804 36.874 22.692C37.1914 22.5707 37.4574 22.398 37.672 22.174C38.0174 21.9127 38.2554 21.586 38.386 21.194C38.526 20.802 38.6334 20.228 38.708 19.472H39.03C39.03 21.1614 39.0487 22.3374 39.086 23H38.764C38.736 22.7014 38.694 22.4914 38.638 22.37C38.5914 22.2394 38.5214 22.174 38.428 22.174C38.3534 22.174 38.2554 22.2114 38.134 22.286C37.714 22.5847 37.3127 22.8134 36.93 22.972C36.5474 23.1214 36.0854 23.196 35.544 23.196C34.5547 23.196 33.6867 22.9954 32.94 22.594C32.2027 22.1927 31.6287 21.614 31.218 20.858C30.8074 20.0927 30.602 19.1827 30.602 18.128C30.602 17.1014 30.812 16.1914 31.232 15.398C31.652 14.6047 32.2354 13.9887 32.982 13.55C33.738 13.1114 34.5967 12.892 35.558 12.892Z" stroke="url(#paint0_linear_4547_2)" stroke-width="4" mask="url(#path-1-inside-1_4547_2)"/>
<path d="M47.3891 12.892C48.3785 12.892 49.2418 13.0927 49.9791 13.494C50.7258 13.8954 51.3045 14.4787 51.7151 15.244C52.1258 16 52.3311 16.9054 52.3311 17.96C52.3311 18.9867 52.1211 19.8967 51.7011 20.69C51.2811 21.4834 50.6931 22.0994 49.9371 22.538C49.1905 22.9767 48.3365 23.196 47.3751 23.196C46.3858 23.196 45.5178 22.9954 44.7711 22.594C44.0338 22.1927 43.4598 21.614 43.0491 20.858C42.6385 20.0927 42.4331 19.1827 42.4331 18.128C42.4331 17.1014 42.6431 16.1914 43.0631 15.398C43.4831 14.6047 44.0665 13.9887 44.8131 13.55C45.5691 13.1114 46.4278 12.892 47.3891 12.892ZM47.3331 13.144C46.8198 13.144 46.3671 13.354 45.9751 13.774C45.5831 14.1847 45.2798 14.7634 45.0651 15.51C44.8598 16.2567 44.7571 17.1107 44.7571 18.072C44.7571 19.0427 44.8738 19.8967 45.1071 20.634C45.3498 21.3714 45.6718 21.9407 46.0731 22.342C46.4838 22.7434 46.9365 22.944 47.4311 22.944C47.9445 22.944 48.3971 22.7387 48.7891 22.328C49.1811 21.908 49.4798 21.3247 49.6851 20.578C49.8998 19.8314 50.0071 18.9774 50.0071 18.016C50.0071 17.0454 49.8858 16.1914 49.6431 15.454C49.4098 14.7167 49.0878 14.1474 48.6771 13.746C48.2758 13.3447 47.8278 13.144 47.3331 13.144Z" stroke="url(#paint1_linear_4547_2)" stroke-width="4" mask="url(#path-1-inside-1_4547_2)"/>
<path d="M64.4853 13.368C64.1773 13.4147 63.9487 13.494 63.7993 13.606C63.6593 13.718 63.5613 13.8954 63.5053 14.138C63.4587 14.3807 63.4353 14.74 63.4353 15.216V23.028L63.0993 23.014L62.7213 23.028L56.6453 15.328V20.704C56.6453 21.2547 56.6733 21.6607 56.7293 21.922C56.7853 22.174 56.9067 22.3607 57.0933 22.482C57.28 22.594 57.5833 22.6734 58.0033 22.72V23C57.6393 22.972 57.1353 22.958 56.4913 22.958C55.978 22.958 55.572 22.972 55.2733 23V22.72C55.5813 22.6734 55.8053 22.594 55.9453 22.482C56.0947 22.37 56.1927 22.1927 56.2393 21.95C56.2953 21.7074 56.3233 21.348 56.3233 20.872V14.572C56.3233 14.2174 56.2953 13.9607 56.2393 13.802C56.1927 13.6434 56.0947 13.536 55.9453 13.48C55.8053 13.424 55.5813 13.3867 55.2733 13.368V13.088C55.572 13.116 55.978 13.13 56.4913 13.13C56.958 13.13 57.3593 13.116 57.6953 13.088L63.1133 19.766V15.384C63.1133 14.8334 63.0853 14.432 63.0293 14.18C62.9733 13.9187 62.852 13.732 62.6653 13.62C62.4787 13.4987 62.1753 13.4147 61.7553 13.368V13.088C62.1193 13.116 62.6233 13.13 63.2673 13.13C63.79 13.13 64.196 13.116 64.4853 13.088V13.368Z" stroke="url(#paint2_linear_4547_2)" stroke-width="4" mask="url(#path-1-inside-1_4547_2)"/>
<path d="M77.6991 22.902C77.5405 23.9567 77.2185 24.6847 76.7331 25.086C76.5278 25.254 76.2665 25.3847 75.9491 25.478C75.6411 25.5807 75.3005 25.632 74.9271 25.632C74.4231 25.632 73.9238 25.5527 73.4291 25.394C72.9438 25.2354 72.3418 24.9974 71.6231 24.68C71.4458 24.6054 71.2498 24.5214 71.0351 24.428C70.8298 24.344 70.5965 24.2507 70.3351 24.148L69.9991 24.05C69.8218 24.1434 69.6258 24.2134 69.4111 24.26C69.2058 24.316 69.0098 24.344 68.8231 24.344C68.6271 24.344 68.4685 24.3114 68.3471 24.246C68.2258 24.19 68.1651 24.1014 68.1651 23.98C68.1651 23.728 68.4218 23.602 68.9351 23.602C69.2805 23.602 69.6351 23.6674 69.9991 23.798C70.3165 23.7047 70.6525 23.5787 71.0071 23.42C71.0725 23.392 71.1705 23.35 71.3011 23.294C71.4318 23.2474 71.5485 23.2054 71.6511 23.168C70.7831 23.084 70.0225 22.832 69.3691 22.412C68.7251 21.9827 68.2258 21.404 67.8711 20.676C67.5258 19.948 67.3531 19.0987 67.3531 18.128C67.3531 17.1014 67.5631 16.1914 67.9831 15.398C68.4031 14.6047 68.9865 13.9887 69.7331 13.55C70.4891 13.1114 71.3478 12.892 72.3091 12.892C73.2985 12.892 74.1618 13.0927 74.8991 13.494C75.6458 13.8954 76.2245 14.4787 76.6351 15.244C77.0458 16 77.2511 16.9054 77.2511 17.96C77.2511 18.9494 77.0551 19.836 76.6631 20.62C76.2711 21.3947 75.7205 22.006 75.0111 22.454C74.3018 22.902 73.4945 23.1447 72.5891 23.182C72.3651 23.21 72.1645 23.252 71.9871 23.308C71.8098 23.364 71.5998 23.4434 71.3571 23.546C71.0585 23.6767 70.7691 23.784 70.4891 23.868L71.6231 23.966C72.8085 24.0687 73.6625 24.12 74.1851 24.12C74.5305 24.12 74.8805 24.0967 75.2351 24.05C75.8138 23.9847 76.2711 23.8587 76.6071 23.672C76.9431 23.4947 77.2231 23.2147 77.4471 22.832L77.6991 22.902ZM69.6771 18.072C69.6771 19.0427 69.7938 19.8967 70.0271 20.634C70.2698 21.3714 70.5918 21.9407 70.9931 22.342C71.4038 22.7434 71.8565 22.944 72.3511 22.944C72.8645 22.944 73.3171 22.7387 73.7091 22.328C74.1011 21.908 74.3998 21.3247 74.6051 20.578C74.8198 19.8314 74.9271 18.9774 74.9271 18.016C74.9271 17.0454 74.8058 16.1914 74.5631 15.454C74.3298 14.7167 74.0078 14.1474 73.5971 13.746C73.1958 13.3447 72.7478 13.144 72.2531 13.144C71.7398 13.144 71.2871 13.354 70.8951 13.774C70.5031 14.1847 70.1998 14.7634 69.9851 15.51C69.7798 16.2567 69.6771 17.1107 69.6771 18.072Z" stroke="url(#paint3_linear_4547_2)" stroke-width="4" mask="url(#path-1-inside-1_4547_2)"/>
<path d="M89.1383 13.368C88.8303 13.4147 88.6017 13.494 88.4523 13.606C88.3123 13.718 88.2143 13.8954 88.1583 14.138C88.1117 14.3807 88.0883 14.74 88.0883 15.216V18.926C88.0883 20.2607 87.897 21.25 87.5143 21.894C87.2623 22.3047 86.8983 22.6267 86.4223 22.86C85.9463 23.084 85.363 23.196 84.6723 23.196C83.5897 23.196 82.7497 22.9627 82.1523 22.496C81.723 22.1507 81.4337 21.7167 81.2843 21.194C81.135 20.662 81.0603 19.92 81.0603 18.968V14.572C81.0603 14.2174 81.0323 13.9607 80.9763 13.802C80.9297 13.6434 80.8317 13.536 80.6823 13.48C80.5423 13.424 80.3183 13.3867 80.0103 13.368V13.088C80.4863 13.116 81.2143 13.13 82.1943 13.13C83.165 13.13 83.907 13.116 84.4203 13.088V13.368C84.0843 13.3867 83.837 13.424 83.6783 13.48C83.529 13.536 83.4263 13.6434 83.3703 13.802C83.3143 13.9607 83.2863 14.2174 83.2863 14.572V19.85C83.2863 20.83 83.4263 21.5534 83.7063 22.02C83.9957 22.4774 84.4997 22.706 85.2183 22.706C86.1517 22.706 86.8097 22.3934 87.1923 21.768C87.575 21.1334 87.7663 20.2374 87.7663 19.08V15.384C87.7663 14.8427 87.7337 14.4414 87.6683 14.18C87.603 13.9187 87.477 13.732 87.2903 13.62C87.1037 13.4987 86.8097 13.4147 86.4083 13.368V13.088C86.763 13.116 87.267 13.13 87.9203 13.13C88.443 13.13 88.849 13.116 89.1383 13.088V13.368Z" stroke="url(#paint4_linear_4547_2)" stroke-width="4" mask="url(#path-1-inside-1_4547_2)"/>
<path d="M99.5047 20.872C99.5047 21.7307 99.5374 22.44 99.6027 23C98.968 22.972 97.8994 22.958 96.3967 22.958C94.362 22.958 92.8407 22.972 91.8327 23V22.72C92.1407 22.7014 92.3647 22.664 92.5047 22.608C92.654 22.552 92.752 22.4447 92.7987 22.286C92.8547 22.1274 92.8827 21.8707 92.8827 21.516V14.572C92.8827 14.2174 92.8547 13.9607 92.7987 13.802C92.752 13.6434 92.654 13.536 92.5047 13.48C92.3647 13.424 92.1407 13.3867 91.8327 13.368V13.088C92.8407 13.116 94.362 13.13 96.3967 13.13C97.7687 13.13 98.744 13.116 99.3227 13.088C99.2574 13.8627 99.2247 14.5534 99.2247 15.16C99.2247 15.5707 99.2387 15.888 99.2667 16.112H98.9447C98.8047 15.1134 98.5527 14.4134 98.1887 14.012C97.8247 13.6107 97.3114 13.41 96.6487 13.41H96.0747C95.7854 13.41 95.5754 13.4334 95.4447 13.48C95.314 13.5267 95.2254 13.62 95.1787 13.76C95.132 13.8907 95.1087 14.1054 95.1087 14.404V17.876H95.5567C96.0514 17.876 96.4247 17.694 96.6767 17.33C96.938 16.966 97.12 16.532 97.2227 16.028H97.5447C97.5167 16.42 97.5027 16.8587 97.5027 17.344V18.016C97.5027 18.492 97.5307 19.1547 97.5867 20.004H97.2647C97.0687 18.772 96.4994 18.156 95.5567 18.156H95.1087V21.684C95.1087 21.9827 95.132 22.202 95.1787 22.342C95.2254 22.4727 95.314 22.5614 95.4447 22.608C95.5754 22.6547 95.7854 22.678 96.0747 22.678H96.7607C97.4234 22.678 97.9554 22.454 98.3567 22.006C98.7674 21.5487 99.0567 20.7787 99.2247 19.696H99.5467C99.5187 20.004 99.5047 20.396 99.5047 20.872Z" stroke="url(#paint5_linear_4547_2)" stroke-width="4" mask="url(#path-1-inside-1_4547_2)"/>
<path d="M106.166 12.906C106.651 12.906 107.038 12.9527 107.328 13.046C107.617 13.1394 107.911 13.2747 108.21 13.452C108.312 13.508 108.401 13.5547 108.476 13.592C108.56 13.6294 108.63 13.648 108.686 13.648C108.77 13.648 108.835 13.6014 108.882 13.508C108.928 13.4054 108.966 13.2467 108.994 13.032H109.316C109.269 13.6574 109.246 14.7214 109.246 16.224H108.924C108.886 15.72 108.77 15.2394 108.574 14.782C108.387 14.3247 108.116 13.956 107.762 13.676C107.416 13.3867 107.01 13.242 106.544 13.242C106.086 13.242 105.713 13.3727 105.424 13.634C105.144 13.886 105.004 14.2314 105.004 14.67C105.004 14.9967 105.074 15.2814 105.214 15.524C105.354 15.7667 105.55 15.9907 105.802 16.196C106.054 16.392 106.441 16.6627 106.964 17.008L107.412 17.316C107.962 17.68 108.396 17.9974 108.714 18.268C109.031 18.5387 109.288 18.856 109.484 19.22C109.689 19.5747 109.792 19.99 109.792 20.466C109.792 21.0634 109.638 21.5674 109.33 21.978C109.022 22.3794 108.602 22.6827 108.07 22.888C107.547 23.0934 106.964 23.196 106.32 23.196C105.797 23.196 105.363 23.1494 105.018 23.056C104.672 22.9627 104.355 22.8367 104.066 22.678C103.86 22.5474 103.702 22.482 103.59 22.482C103.506 22.482 103.44 22.5334 103.394 22.636C103.347 22.7294 103.31 22.8834 103.282 23.098H102.96C102.997 22.51 103.016 21.25 103.016 19.318H103.338C103.403 20.3634 103.636 21.2127 104.038 21.866C104.439 22.51 105.055 22.832 105.886 22.832C106.39 22.832 106.805 22.6967 107.132 22.426C107.458 22.1554 107.622 21.768 107.622 21.264C107.622 20.7414 107.454 20.2934 107.118 19.92C106.782 19.5467 106.25 19.1267 105.522 18.66C104.962 18.296 104.514 17.9787 104.178 17.708C103.842 17.4374 103.566 17.12 103.352 16.756C103.137 16.3827 103.03 15.9534 103.03 15.468C103.03 14.908 103.17 14.4367 103.45 14.054C103.739 13.662 104.122 13.3727 104.598 13.186C105.074 12.9994 105.596 12.906 106.166 12.906Z" stroke="url(#paint6_linear_4547_2)" stroke-width="4" mask="url(#path-1-inside-1_4547_2)"/>
<path d="M121.314 13.088C121.248 13.9747 121.216 14.768 121.216 15.468C121.216 15.9067 121.23 16.2614 121.258 16.532H120.936C120.712 15.384 120.404 14.5767 120.012 14.11C119.629 13.6434 119.102 13.41 118.43 13.41H118.108V21.404C118.108 21.796 118.145 22.0807 118.22 22.258C118.304 22.4354 118.444 22.5567 118.64 22.622C118.845 22.678 119.167 22.7107 119.606 22.72V23C118.43 22.972 117.543 22.958 116.946 22.958C116.358 22.958 115.504 22.972 114.384 23V22.72C114.822 22.7107 115.14 22.678 115.336 22.622C115.541 22.5567 115.681 22.4354 115.756 22.258C115.84 22.0807 115.882 21.796 115.882 21.404V13.41H115.574C115.126 13.41 114.743 13.508 114.426 13.704C114.118 13.9 113.852 14.2267 113.628 14.684C113.404 15.132 113.212 15.748 113.054 16.532H112.732C112.76 16.2614 112.774 15.9067 112.774 15.468C112.774 14.768 112.741 13.9747 112.676 13.088C113.525 13.116 114.967 13.13 117.002 13.13C119.036 13.13 120.474 13.116 121.314 13.088Z" stroke="url(#paint7_linear_4547_2)" stroke-width="4" mask="url(#path-1-inside-1_4547_2)"/>
<path d="M24.0649 7.06571C25.1835 9.15186 25.6525 11.4127 25.542 13.6163C25.3288 17.8681 22.958 21.9065 18.9327 24.0649C16.5817 25.3255 14.0087 25.7612 11.546 25.472C7.60697 25.0096 3.94988 22.6931 1.93356 18.9327C-1.34343 12.8213 0.954315 5.21054 7.06571 1.93356C8.51995 1.15378 10.0591 0.689663 11.6045 0.51747C13.8686 0.265209 16.1461 0.639478 18.1902 1.56567C20.6144 2.66415 22.71 4.53899 24.0649 7.06571Z" stroke="url(#paint8_linear_4547_2)" stroke-width="4" mask="url(#path-1-inside-1_4547_2)"/>
<defs>
<linearGradient id="paint0_linear_4547_2" x1="0.914146" y1="11.338" x2="27.354" y2="12.9979" gradientUnits="userSpaceOnUse">
<stop offset="0.288448" stop-color="white"/>
<stop offset="0.780176" stop-color="white" stop-opacity="0"/>
</linearGradient>
<linearGradient id="paint1_linear_4547_2" x1="0.914146" y1="11.338" x2="27.354" y2="12.9979" gradientUnits="userSpaceOnUse">
<stop offset="0.288448" stop-color="white"/>
<stop offset="0.780176" stop-color="white" stop-opacity="0"/>
</linearGradient>
<linearGradient id="paint2_linear_4547_2" x1="0.914146" y1="11.338" x2="27.354" y2="12.9979" gradientUnits="userSpaceOnUse">
<stop offset="0.288448" stop-color="white"/>
<stop offset="0.780176" stop-color="white" stop-opacity="0"/>
</linearGradient>
<linearGradient id="paint3_linear_4547_2" x1="0.914146" y1="11.338" x2="27.354" y2="12.9979" gradientUnits="userSpaceOnUse">
<stop offset="0.288448" stop-color="white"/>
<stop offset="0.780176" stop-color="white" stop-opacity="0"/>
</linearGradient>
<linearGradient id="paint4_linear_4547_2" x1="0.914146" y1="11.338" x2="27.354" y2="12.9979" gradientUnits="userSpaceOnUse">
<stop offset="0.288448" stop-color="white"/>
<stop offset="0.780176" stop-color="white" stop-opacity="0"/>
</linearGradient>
<linearGradient id="paint5_linear_4547_2" x1="0.914146" y1="11.338" x2="27.354" y2="12.9979" gradientUnits="userSpaceOnUse">
<stop offset="0.288448" stop-color="white"/>
<stop offset="0.780176" stop-color="white" stop-opacity="0"/>
</linearGradient>
<linearGradient id="paint6_linear_4547_2" x1="0.914146" y1="11.338" x2="27.354" y2="12.9979" gradientUnits="userSpaceOnUse">
<stop offset="0.288448" stop-color="white"/>
<stop offset="0.780176" stop-color="white" stop-opacity="0"/>
</linearGradient>
<linearGradient id="paint7_linear_4547_2" x1="0.914146" y1="11.338" x2="27.354" y2="12.9979" gradientUnits="userSpaceOnUse">
<stop offset="0.288448" stop-color="white"/>
<stop offset="0.780176" stop-color="white" stop-opacity="0"/>
</linearGradient>
<linearGradient id="paint8_linear_4547_2" x1="0.914146" y1="11.338" x2="27.354" y2="12.9979" gradientUnits="userSpaceOnUse">
<stop offset="0.288448" stop-color="white"/>
<stop offset="0.780176" stop-color="white" stop-opacity="0"/>
</linearGradient>
</defs>
</svg>
